<svg xmlns="http://www.w3.org/2000/svg" viewBox="0 0 234.5 248.18"><defs><style>.cls-1{fill:#df5bd3;}.cls-2{fill:#7e5bf6;}</style></defs><g id="Layer_2" data-name="Layer 2"><rect class="cls-1" x="42" y="87.58" width="34" height="124" rx="16.88"/></g><g id="Layer_3" data-name="Layer 3"><path class="cls-2" d="M52.78,40.18c77.53-7.4,103.33,7,103.33,7,7.95,4.44,21.46,12.18,32.16,28.1a88.17,88.17,0,0,1,12.09,28.59c7.84,33.76-8.4,62.06-8.4,62.06a87.25,87.25,0,0,1-35.68,33.6s-23.34,11.15-50.84,8.15a11.43,11.43,0,0,1-3.12-.78A15.66,15.66,0,0,1,95.9,202c-3-3.93-5.27-10.16-3.11-14.56,2.44-5,9.25-4.1,22.64-7.49,3.85-1,14.28-3.61,23-8.51,16.09-9.06,23.26-24.15,24.51-26.89,2.9-6.33,9.33-20.36,4.09-35.41-4.26-12.24-13.95-18.58-21.45-23.49-20.31-13.3-43.06-14.12-50.38-14.29-12.78-.32-25.54-2.85-38.3-2-2.11.14-7.68.55-11.6-3s-4.14-9-4.23-11c-.1-2.49-.35-8.24,3.92-12.09A13.32,13.32,0,0,1,52.78,40.18Z"/></g></svg>